<?xml version="1.0" standalone="no"?>
<!DOCTYPE svg PUBLIC "-//W3C//DTD SVG 20010904//EN"
 "http://www.w3.org/TR/2001/REC-SVG-20010904/DTD/svg10.dtd">
<svg version="1.0" xmlns="http://www.w3.org/2000/svg"
 width="1280.000000pt" height="640.000000pt" viewBox="0 0 1280.000000 640.000000"
 preserveAspectRatio="xMidYMid meet">
<metadata>
Created by potrace 1.15, written by Peter Selinger 2001-2017
</metadata>
<g transform="translate(0.000000,640.000000) scale(0.100000,-0.100000)"
fill="#000000" stroke="none">
<path d="M7674 5910 c-86 -20 -133 -79 -109 -136 42 -100 252 -159 372 -104
l42 19 70 -76 c57 -63 70 -84 76 -121 4 -24 4 -46 1 -49 -7 -8 -116 60 -116
73 0 6 -28 24 -62 40 -57 26 -75 29 -197 32 -142 4 -207 -6 -236 -38 -57 -63
88 -130 282 -130 48 0 105 5 126 11 35 9 40 8 101 -35 57 -41 64 -50 69 -88 3
-24 4 -44 3 -46 -2 -1 -32 4 -67 13 -86 20 -306 19 -434 -1 -55 -9 -129 -18
-164 -19 -35 -2 -82 -8 -105 -14 -22 -6 -92 -23 -155 -38 -63 -15 -129 -37
-148 -50 -19 -13 -38 -23 -42 -23 -12 0 0 -53 16 -72 16 -18 10 -38 -11 -38
-22 0 -6 -59 22 -80 27 -22 106 -27 158 -11 16 5 86 21 156 37 93 20 128 31
131 44 6 22 123 41 297 47 148 6 228 -5 299 -39 65 -30 204 -174 288 -299 81
-119 81 -119 -10 -119 -29 0 -69 -3 -89 -6 l-37 -6 22 -18 22 -18 -25 -10
c-14 -6 -51 -22 -83 -36 -68 -31 -67 -31 -67 -8 0 30 -47 118 -85 160 -108
120 -278 172 -561 172 -331 0 -681 -77 -1099 -241 -407 -160 -767 -377 -1004
-604 -125 -121 -189 -202 -244 -314 -36 -73 -42 -95 -46 -162 -1 -42 2 -85 7
-95 9 -18 -27 -32 -491 -196 -276 -98 -515 -179 -532 -182 -78 -12 -266 -17
-380 -11 l-125 7 -77 52 c-67 44 -79 57 -89 93 -10 34 -10 41 1 37 10 -4 11 4
5 38 -60 320 -388 624 -831 772 -201 67 -394 96 -646 96 -278 0 -500 -39 -768
-137 -83 -30 -325 -144 -324 -152 0 -3 54 -47 120 -97 l121 -90 101 51 c124
61 260 109 387 135 52 11 95 18 96 17 5 -5 23 -131 20 -134 -2 -2 -50 -15
-107 -28 -186 -42 -341 -108 -498 -214 -47 -31 -91 -60 -100 -66 -37 -24 -291
-288 -291 -302 0 -2 -24 -43 -53 -92 -30 -49 -67 -119 -83 -157 -15 -38 -31
-71 -34 -74 -9 -9 -40 -132 -63 -250 -12 -63 -24 -116 -27 -117 -5 -3 5 -265
14 -358 6 -61 45 -205 81 -300 14 -38 29 -79 32 -90 11 -36 114 -208 175 -292
33 -45 108 -128 166 -185 308 -297 682 -448 1109 -448 307 0 593 86 851 257
112 74 330 291 392 390 25 40 50 70 57 68 6 -2 14 1 17 8 5 9 7 9 12 -1 5 -10
9 -10 20 -1 11 9 14 9 14 -1 0 -7 7 -10 17 -6 9 4 20 1 25 -6 6 -10 8 -10 8 0
0 6 4 12 8 12 5 0 2 -31 -6 -68 -36 -169 29 -260 204 -282 117 -16 2140 -120
2909 -150 479 -19 569 -18 655 8 229 70 764 331 765 373 1 32 31 98 83 178 53
83 97 170 132 262 l18 47 -26 25 -25 25 193 554 c413 1184 465 1333 473 1346
16 24 133 -95 219 -223 167 -251 178 -295 178 -712 0 -328 8 -389 58 -497 65
-137 214 -255 429 -337 l61 -23 7 -56 c4 -30 9 -75 11 -100 3 -50 51 -219 83
-293 12 -27 21 -53 21 -58 0 -6 8 -22 18 -37 11 -15 36 -56 57 -92 83 -141
204 -278 340 -385 28 -22 52 -43 55 -46 9 -10 173 -106 229 -134 85 -42 227
-91 342 -117 91 -20 130 -23 314 -23 165 0 227 4 292 18 274 60 506 180 697
358 193 181 315 386 381 640 36 140 45 356 21 509 -70 441 -362 823 -793 1039
-93 46 -212 87 -342 118 -106 25 -134 27 -321 27 -227 1 -292 -9 -477 -70
-141 -46 -357 -162 -439 -235 -20 -19 -21 -18 -58 20 l-38 39 34 25 c111 84
286 177 528 280 l155 66 244 26 c134 14 245 25 247 25 2 0 4 6 4 14 0 10 -20
17 -67 23 -102 12 -408 9 -493 -6 -265 -45 -498 -136 -697 -272 -40 -27 -76
-49 -80 -48 -14 2 -885 910 -879 917 4 3 12 -3 19 -12 9 -13 28 -19 59 -20 25
0 44 -4 42 -8 -6 -9 73 -21 87 -12 7 4 9 3 6 -4 -7 -11 85 -28 101 -18 4 2 28
0 53 -5 24 -6 58 -8 76 -4 64 12 63 4 63 355 0 175 -3 325 -6 334 -3 9 -24 21
-45 26 -23 6 -39 17 -39 25 0 8 -1 15 -2 15 -2 0 -25 -7 -52 -15 -60 -18 -66
-19 -66 -1 0 10 -44 1 -175 -35 -261 -72 -425 -137 -492 -193 l-30 -25 -28 29
c-19 20 -39 30 -57 30 -21 0 -33 8 -48 33 -25 41 -25 44 5 54 l25 8 -61 94
c-71 111 -136 198 -194 262 l-42 45 -13 198 c-12 183 -15 200 -37 226 -12 15
-23 32 -23 37 0 5 -40 53 -90 107 -49 53 -95 109 -102 124 -41 83 -212 134
-344 102z m413 -1679 l-7 -59 122 49 c67 27 123 49 126 49 2 0 -6 -12 -18 -27
-18 -23 -19 -29 -7 -38 7 -5 94 -84 192 -175 174 -162 200 -199 105 -150 -41
21 -42 21 -47 1 -7 -26 -17 -27 -623 -46 l-495 -16 -353 -89 c-194 -50 -355
-90 -358 -90 -3 0 52 50 122 110 124 108 128 110 178 111 28 1 244 5 481 8
l430 6 47 105 c41 92 74 194 93 283 10 49 18 28 12 -32z m-5942 -401 c193 -41
496 -158 550 -212 12 -13 49 -38 82 -57 162 -89 375 -282 500 -451 86 -117
177 -265 170 -277 -9 -15 -130 -48 -134 -38 -2 6 -28 55 -58 110 -221 401
-605 686 -1058 784 -120 26 -314 44 -388 36 l-56 -7 -7 48 c-3 26 -6 58 -6 72
l0 25 153 -6 c95 -4 190 -14 252 -27z m6365 -60 c0 -13 -121 -353 -129 -362
-4 -4 -181 66 -394 157 -213 91 -392 165 -397 165 -6 0 -10 4 -10 8 0 5 123
13 273 17 274 8 607 20 640 23 9 1 17 -2 17 -8z m1157 -593 l112 -109 -51 -61
c-60 -72 -144 -199 -183 -276 -67 -133 -124 -380 -113 -490 2 -23 0 -41 -3
-41 -4 0 -32 23 -63 51 -63 57 -118 157 -138 249 -8 37 -11 150 -10 340 3 315
-6 398 -52 511 -15 35 -30 71 -33 79 -3 8 10 0 30 -19 l36 -34 75 28 c42 15
76 30 76 33 0 2 -44 52 -97 109 -242 260 -225 245 414 -370z m-3629 481 c83
-29 152 -55 152 -58 0 -3 -30 -18 -66 -34 -82 -37 -188 -107 -281 -186 l-73
-61 -92 96 c-71 72 -99 95 -119 95 -38 0 -121 -31 -226 -84 -68 -34 -104 -46
-135 -46 l-43 1 30 25 c86 71 231 151 370 205 74 28 297 97 320 99 6 0 79 -23
163 -52z m1520 -48 c325 -130 762 -336 762 -360 0 -3 -16 -12 -36 -19 -40 -14
-40 -20 0 -23 14 -1 25 -7 23 -13 -2 -5 -100 -277 -217 -602 l-213 -593 -104
-61 c-102 -60 -115 -72 -90 -82 9 -4 8 -8 -3 -16 -13 -10 -6 -20 42 -62 l57
-50 -37 -102 c-20 -56 -41 -105 -46 -109 -17 -12 -132 -9 -341 6 -104 8 -241
18 -302 21 -62 4 -113 9 -113 11 0 2 71 93 158 202 312 391 472 639 472 729
-1 65 -78 164 -172 221 -16 9 -28 20 -28 25 0 19 42 67 60 67 10 0 25 12 35
26 30 45 106 267 101 290 -12 45 -187 160 -401 264 -135 66 -224 95 -257 84
-13 -3 -53 -33 -89 -65 l-67 -58 -35 58 c-20 32 -56 76 -80 98 l-44 41 27 15
c26 16 27 15 38 -8 10 -21 15 -23 34 -15 13 5 100 30 193 56 94 25 222 61 285
79 63 19 126 34 138 34 13 1 125 -40 250 -89z m-2499 -348 c-47 -34 -144 -70
-155 -59 -10 10 38 38 111 65 105 40 108 39 44 -6z m-2985 -48 c105 -20 153
-36 271 -94 105 -51 199 -117 281 -197 63 -60 137 -154 129 -162 -3 -3 -10 0
-14 7 -4 7 -15 10 -24 6 -10 -3 -17 -1 -17 5 0 6 -7 8 -15 5 -8 -4 -15 -1 -15
6 0 7 -7 10 -15 6 -8 -3 -15 -1 -15 5 0 6 -9 8 -20 4 -11 -4 -20 -2 -20 4 0 6
-7 8 -15 5 -8 -4 -15 -1 -15 6 0 6 -5 10 -12 8 -6 -2 -38 21 -71 51 -142 134
-297 210 -467 229 l-61 7 -34 62 -34 62 52 -5 c29 -3 87 -12 131 -20z m-380
-9 c3 -8 8 -37 12 -64 l6 -49 -38 -12 c-53 -17 -150 -66 -204 -103 -202 -139
-333 -377 -347 -629 l-6 -107 -41 -29 c-42 -31 -139 -126 -176 -174 -12 -16
-28 -28 -36 -28 -23 0 -29 47 -28 230 0 161 2 182 27 263 105 341 356 590 699
691 97 29 124 31 132 11z m159 -62 c6 -33 3 -38 -18 -30 -19 8 -20 57 -1 57 7
0 16 -12 19 -27z m3162 -95 c44 -143 72 -200 94 -193 12 3 29 -19 61 -75 45
-80 45 -80 87 -80 49 0 42 7 161 -187 l80 -131 -162 -55 c-173 -59 -177 -60
-217 -58 -24 1 -30 9 -53 72 -14 38 -26 72 -26 75 0 3 34 4 75 2 41 -2 75 -1
75 2 0 7 -59 164 -100 265 -50 126 -131 274 -167 305 -18 16 -51 34 -73 40
-38 10 -181 29 -225 30 -29 1 -9 10 110 55 85 32 150 47 226 54 12 1 25 -30
54 -121z m4945 -153 c34 -35 34 -44 -5 -80 -19 -17 -102 -157 -136 -230 -19
-38 -37 -71 -41 -73 -5 -2 -8 -11 -8 -20 0 -9 -11 -51 -24 -92 -13 -41 -30
-112 -37 -158 -7 -45 -15 -82 -18 -82 -4 0 -5 -20 -3 -45 l4 -46 -51 21 c-59
23 -171 78 -171 84 0 3 39 -6 88 -19 48 -13 90 -20 93 -17 3 4 13 34 21 67 51
203 113 430 135 495 25 75 101 230 113 230 3 0 21 -16 40 -35z m1338 -5 c397
-81 708 -378 789 -755 20 -94 20 -270 -1 -367 -19 -90 -64 -202 -108 -273 -37
-59 -116 -155 -128 -155 -8 0 -101 136 -141 206 l-23 41 29 64 c39 88 55 159
55 256 0 104 -14 170 -55 258 -63 136 -171 249 -309 321 -31 16 -56 34 -56 39
0 24 -111 233 -143 271 -20 22 -37 53 -39 70 -2 24 -8 30 -38 35 -31 6 -28 7
18 8 30 0 97 -8 150 -19z m-315 -42 c40 -60 64 -131 73 -224 l7 -64 -29 0
c-58 -1 -170 -31 -244 -66 l-75 -36 -117 121 c-65 66 -118 124 -118 129 0 13
147 98 220 128 70 28 192 63 226 63 15 1 32 -15 57 -51z m-4878 -120 c78 -39
155 -61 208 -60 34 1 45 -2 40 -11 -4 -7 -20 -32 -37 -56 -23 -35 -26 -45 -15
-52 8 -4 22 -14 32 -21 18 -13 18 -14 -1 -31 -18 -16 -20 -16 -47 4 l-27 22
-64 -31 c-36 -18 -66 -32 -68 -32 -2 0 -15 15 -30 34 l-26 34 30 19 30 19 -65
108 c-36 59 -65 110 -65 112 0 3 12 -3 28 -14 15 -11 50 -31 77 -44z m-2545
-114 c30 -76 38 -110 31 -117 -8 -8 -11 -7 -11 2 0 8 -7 10 -20 6 -11 -4 -20
-2 -20 4 0 6 -7 8 -15 5 -8 -4 -15 -1 -15 6 0 6 -6 10 -12 7 -7 -2 -18 3 -25
12 -8 11 -12 12 -13 4 0 -20 -20 -15 -21 5 0 10 -3 12 -6 5 -7 -18 -23 -16
-23 2 0 8 -4 15 -9 15 -5 0 -16 20 -25 45 l-15 46 27 11 c15 5 50 18 77 28 28
10 51 19 52 19 1 1 20 -47 43 -105z m7630 77 c0 -11 5 -23 10 -26 6 -4 24 -33
41 -66 l30 -60 -38 7 c-73 13 -80 19 -87 71 -3 27 -13 59 -22 71 -15 22 -14
22 25 22 34 0 41 -3 41 -19z m-3972 -92 l-23 -40 30 -25 c17 -13 24 -24 18
-24 -7 0 -13 -8 -13 -17 0 -19 -16 -73 -36 -120 -7 -17 -66 -112 -131 -210
-65 -98 -121 -187 -125 -198 -3 -11 -6 51 -7 139 l-1 158 47 67 c178 251 225
311 244 311 19 0 19 -1 -3 -41z m3314 -256 l26 -28 -39 -65 c-50 -81 -80 -174
-86 -265 -3 -38 -7 -72 -8 -73 -5 -5 -287 38 -298 45 -13 8 2 174 23 258 23
89 68 190 122 273 l40 62 97 -89 c53 -49 108 -102 123 -118z m-5537 11 c4 -36
4 -68 1 -71 -3 -3 -118 2 -257 12 l-251 18 7 46 c4 25 9 49 12 54 2 4 111 7
242 7 l239 0 7 -66z m-968 4 c-3 -8 -6 -5 -6 6 -1 11 2 17 5 13 3 -3 4 -12 1
-19z m7032 -50 c-4 -35 -10 -82 -14 -105 -8 -48 -8 -49 39 -29 37 16 54 51 65
140 7 57 5 56 96 31 77 -22 84 -31 92 -107 6 -65 7 -68 47 -95 74 -51 70 -52
62 18 l-8 64 27 -25 c45 -42 96 -160 102 -234 5 -59 3 -69 -19 -98 -14 -18
-37 -59 -52 -90 -45 -95 -99 -134 -244 -174 -9 -3 -3 -17 19 -44 18 -22 30
-42 28 -45 -13 -12 -130 -35 -182 -35 -129 0 -242 43 -341 131 l-49 43 28 8
c15 4 69 10 121 14 83 6 96 4 126 -14 52 -32 145 -46 208 -33 72 16 145 57
182 103 33 42 68 125 68 161 0 21 -3 22 -111 22 l-111 1 -189 194 c-103 107
-188 198 -189 201 0 13 136 57 181 58 25 1 25 1 18 -61z m-284 -198 c32 -33
57 -61 54 -63 -18 -12 -193 -86 -197 -83 -15 15 56 206 76 206 4 0 34 -27 67
-60z m-9638 -5 c9 -39 8 -45 -8 -50 -9 -3 -34 -17 -54 -31 -21 -14 -38 -24
-40 -22 -8 11 -13 68 -5 68 5 0 26 18 46 40 21 22 40 40 44 40 4 0 11 -20 17
-45z m75 -213 c145 -302 464 -490 796 -469 107 7 174 24 272 68 l66 30 69 -40
c38 -23 75 -41 82 -41 13 0 53 -39 53 -51 0 -4 -30 -26 -66 -49 -376 -237
-862 -217 -1225 51 -123 91 -268 261 -325 382 -22 46 -17 57 50 108 42 32 155
87 181 88 6 1 27 -34 47 -77z m9748 37 c0 -3 -11 -4 -25 -1 -16 3 -25 11 -25
24 0 18 1 18 25 1 13 -10 25 -21 25 -24z m-100 11 c0 -5 -4 -10 -9 -10 -16 0
-3 -88 20 -131 11 -23 19 -42 17 -44 -2 -1 -49 -5 -106 -8 l-102 -5 -15 28
c-8 16 -15 32 -15 35 0 4 32 5 70 3 l70 -3 0 37 c0 36 0 37 -52 45 l-53 9 80
26 c93 31 95 31 95 18z m-609 -85 c57 -8 119 -17 136 -20 l33 -6 -58 -48 c-31
-27 -76 -69 -100 -95 -24 -25 -49 -46 -56 -46 -11 0 -47 96 -62 165 -3 17 -8
38 -11 48 -5 21 -11 20 118 2z m209 -114 c0 -11 5 -23 10 -26 17 -10 11 -33
-9 -40 -11 -3 -35 -16 -54 -29 l-35 -24 -6 29 c-5 24 1 35 37 69 48 45 57 48
57 21z m86 -161 c66 -95 187 -190 301 -238 170 -72 381 -69 557 7 l48 21 57
-49 c31 -26 82 -67 114 -89 l59 -41 -44 -23 c-84 -44 -166 -76 -254 -99 -76
-20 -112 -24 -249 -23 -140 1 -172 4 -260 27 -113 30 -234 85 -327 148 -74 50
-192 161 -236 223 -29 41 -30 44 -14 59 25 22 192 102 222 106 3 0 14 -13 26
-29z m870 5 c-25 -19 -32 -19 -40 0 -4 11 2 15 27 15 30 -1 31 -1 13 -15z
m275 -179 c25 -39 59 -84 75 -99 l29 -29 -24 -19 c-23 -19 -24 -19 -73 8 -27
15 -79 54 -114 86 l-65 60 53 48 c45 41 54 45 63 32 6 -9 31 -48 56 -87z
m-7818 -151 c17 -11 27 -26 27 -42 0 -22 -3 -24 -27 -18 -49 12 -113 43 -113
55 0 7 8 25 17 41 l17 29 26 -24 c14 -13 37 -31 53 -41z m381 -110 c266 -37
608 -38 1060 -1 l179 15 96 -44 97 -44 614 4 c506 3 574 2 385 -6 -403 -17
-1512 0 -2025 31 -221 14 -500 40 -525 51 -31 12 -1 11 119 -6z"/>
<path d="M3451 3629 c-22 -22 -43 -50 -47 -61 -14 -45 18 -101 114 -200 74
-76 108 -103 165 -131 76 -37 152 -57 219 -57 37 0 39 -2 27 -17 -10 -12 -11
-15 -1 -9 10 6 11 1 6 -20 -5 -20 -2 -30 10 -40 22 -15 46 -8 46 15 0 9 9 22
20 29 12 7 18 17 15 22 -4 6 -11 7 -17 4 -6 -4 -8 -2 -5 4 4 5 31 13 60 17
214 26 517 108 765 207 125 50 128 55 111 171 l-12 80 -106 -7 c-58 -4 -205
-18 -326 -33 -271 -32 -541 -36 -650 -11 -38 9 -124 28 -190 42 -66 14 -130
28 -142 31 -17 4 -33 -5 -62 -36z"/>
<path d="M5080 691 c-198 -12 376 -21 1320 -21 974 0 1518 9 1310 21 -129 8
-2498 7 -2630 0z"/>
</g>
</svg>
